<svg xmlns="http://www.w3.org/2000/svg" viewBox="0 0 1400 420" preserveAspectRatio="xMidYMid slice">
  <defs>
    <linearGradient id="skyGrad" x1="0%" y1="0%" x2="0%" y2="100%">
      <stop offset="0%" style="stop-color:#87CEEB;stop-opacity:1" />
      <stop offset="100%" style="stop-color:#B0E0E6;stop-opacity:1" />
    </linearGradient>
    <linearGradient id="fairwayGrad" x1="0%" y1="0%" x2="0%" y2="100%">
      <stop offset="0%" style="stop-color:#2E7D32;stop-opacity:1" />
      <stop offset="100%" style="stop-color:#1B5E20;stop-opacity:1" />
    </linearGradient>
    <linearGradient id="hillGrad" x1="0%" y1="0%" x2="0%" y2="100%">
      <stop offset="0%" style="stop-color:#388E3C;stop-opacity:1" />
      <stop offset="100%" style="stop-color:#2E7D32;stop-opacity:1" />
    </linearGradient>
  </defs>

  <rect width="1400" height="420" fill="url(#skyGrad)" />
  <ellipse cx="200" cy="300" rx="350" ry="180" fill="#4CAF50" opacity="0.6"/>
  <ellipse cx="700" cy="310" rx="500" ry="200" fill="#388E3C" opacity="0.5"/>
  <ellipse cx="1200" cy="290" rx="400" ry="170" fill="#43A047" opacity="0.6"/>
  <path d="M0,280 Q350,220 700,250 Q1050,280 1400,240 L1400,420 L0,420 Z" fill="url(#fairwayGrad)"/>
  <path d="M0,300 Q350,240 700,270 Q1050,300 1400,260 L1400,310 Q1050,350 700,320 Q350,290 0,350 Z" fill="#388E3C" opacity="0.4"/>
  <ellipse cx="1100" cy="270" rx="130" ry="55" fill="#66BB6A"/>
  <ellipse cx="1100" cy="265" rx="120" ry="48" fill="#76C442"/>
  <line x1="1110" y1="190" x2="1110" y2="265" stroke="#795548" stroke-width="3"/>
  <polygon points="1110,190 1150,205 1110,220" fill="#E53935"/>
  <rect x="346" y="268" width="6" height="18" rx="2" fill="#795548"/>
  <circle cx="349" cy="263" r="10" fill="white" stroke="#ddd" stroke-width="1"/>
  <circle cx="346" cy="261" r="1.5" fill="#eee"/>
  <circle cx="352" cy="261" r="1.5" fill="#eee"/>
  <circle cx="349" cy="256" r="1.5" fill="#eee"/>
  <circle cx="344" cy="266" r="1.5" fill="#eee"/>
  <circle cx="354" cy="266" r="1.5" fill="#eee"/>
  <g transform="rotate(-35, 280, 320)">
    <rect x="276" y="180" width="8" height="130" rx="4" fill="#5D4037"/>
    <rect x="266" y="300" width="28" height="18" rx="5" fill="#37474F"/>
  </g>
  <ellipse cx="850" cy="300" rx="70" ry="25" fill="#F5DEB3" opacity="0.8"/>
  <g opacity="0.85">
    <rect x="60" y="220" width="14" height="70" fill="#5D4037"/>
    <ellipse cx="67" cy="200" rx="35" ry="50" fill="#1B5E20"/>
    <ellipse cx="67" cy="185" rx="28" ry="40" fill="#2E7D32"/>
  </g>
  <g opacity="0.7">
    <rect x="110" y="235" width="12" height="55" fill="#5D4037"/>
    <ellipse cx="116" cy="215" rx="28" ry="42" fill="#1B5E20"/>
    <ellipse cx="116" cy="200" rx="22" ry="33" fill="#2E7D32"/>
  </g>
  <g opacity="0.8">
    <rect x="1300" y="210" width="14" height="80" fill="#5D4037"/>
    <ellipse cx="1307" cy="188" rx="38" ry="55" fill="#1B5E20"/>
    <ellipse cx="1307" cy="170" rx="30" ry="43" fill="#2E7D32"/>
  </g>
  <g opacity="0.65">
    <rect x="1255" y="225" width="12" height="65" fill="#5D4037"/>
    <ellipse cx="1261" cy="205" rx="30" ry="46" fill="#1B5E20"/>
  </g>
  <g opacity="0.85">
    <ellipse cx="150" cy="80" rx="70" ry="30" fill="white"/>
    <ellipse cx="190" cy="70" rx="55" ry="28" fill="white"/>
    <ellipse cx="120" cy="90" rx="45" ry="22" fill="white"/>
  </g>
  <g opacity="0.75">
    <ellipse cx="900" cy="60" rx="80" ry="32" fill="white"/>
    <ellipse cx="945" cy="50" rx="60" ry="26" fill="white"/>
    <ellipse cx="870" cy="70" rx="50" ry="24" fill="white"/>
  </g>
  <g opacity="0.7">
    <ellipse cx="550" cy="95" rx="60" ry="25" fill="white"/>
    <ellipse cx="585" cy="85" rx="48" ry="22" fill="white"/>
  </g>
  <path d="M0,360 Q300,340 600,355 Q900,370 1400,345" stroke="#D7CCC8" stroke-width="6" fill="none" opacity="0.5"/>
  <linearGradient id="vigGrad" x1="0%" y1="0%" x2="100%" y2="0%">
    <stop offset="0%" style="stop-color:#000000;stop-opacity:0.35" />
    <stop offset="50%" style="stop-color:#000000;stop-opacity:0.1" />
    <stop offset="100%" style="stop-color:#000000;stop-opacity:0.0" />
  </linearGradient>
  <rect width="1400" height="420" fill="url(#vigGrad)"/>
</svg>
